<?xml version="1.0" encoding="UTF-8" standalone="no"?>
<!DOCTYPE svg PUBLIC "-//W3C//DTD SVG 1.1//EN" "http://www.w3.org/Graphics/SVG/1.1/DTD/svg11.dtd">
<svg width="100%" height="100%" viewBox="0 0 3204 1238" version="1.1" xmlns="http://www.w3.org/2000/svg" xmlns:xlink="http://www.w3.org/1999/xlink" xml:space="preserve" xmlns:serif="http://www.serif.com/" style="fill-rule:evenodd;clip-rule:evenodd;stroke-linejoin:round;stroke-miterlimit:2;">
    <g transform="matrix(10.1957,0,0,10.1957,101.957,101.957)">
        <g id="SvgjsG6808" transform="matrix(0.982615,0,0,0.982615,53.3352,81.4187)">
            <path d="M22.3,6C22.56,6 22.62,6.64 22.36,6.68C21.56,6.8 20.94,7.1 20.28,8.8L17.26,16.64C16.62,18.3 16.3,19.22 16.3,20C16.3,20.12 14.9,20.44 14.84,20.3L11.7,12.3L9.82,16.64C9.1,18.3 8.86,19.2 8.86,20C8.86,20.12 7.44,20.44 7.38,20.3L2.82,8.82C2.14,7.1 1.54,6.8 0.76,6.68C0.5,6.64 0.56,6 0.82,6L6.02,6C6.28,6 6.32,6.64 6.08,6.68C5.16,6.84 4.68,7.26 5.28,8.8L8.44,16.96L10.48,12.24C10.94,11.18 11,10.54 10.46,9.16C9.72,7.26 9.2,6.82 8.68,6.68C8.46,6.62 8.48,6 8.74,6L12.72,6C12.92,6 12.98,6.06 12.98,6.16C12.98,6.42 12.1,7.04 12.78,8.8L15.86,16.8L18.9,8.8C19.56,7.08 18.9,6.86 17.94,6.68C17.72,6.64 17.76,6 18,6L22.3,6ZM23.82,20.04C23.62,20.06 23.54,19.36 23.7,19.32C24.86,19.02 25.76,18.84 25.76,17.36L25.76,8.48C25.76,7.2 24.94,6.86 24.08,6.64C23.92,6.6 24.02,5.94 24.18,5.96C25.64,6.12 28.16,6.08 29.38,6.08C31.2,6.08 32.52,6 34.16,5.96C34.64,5.96 34.64,6.28 34.54,6.74L34.06,8.64C34,8.92 33.5,8.92 33.42,8.64C33.12,7.66 32.52,7.1 30.02,7.1C28.62,7.1 28.16,7.46 28.16,8.5L28.16,11.76C28.16,12.28 28.42,12.38 28.82,12.38L29.26,12.38C30.88,12.38 32.28,12.22 33.1,11.48C33.3,11.3 33.74,11.34 33.56,11.74L32.42,14.26C32.26,14.62 31.96,14.58 31.74,14.28C31.28,13.64 30.26,13.38 29.1,13.38L28.82,13.38C28.42,13.38 28.16,13.48 28.16,14L28.16,17.36C28.16,18.5 28.64,18.92 30.3,18.92C33.32,18.92 34.52,17.54 35,16.78C35.14,16.56 35.68,16.66 35.68,17C35.68,18.02 34.82,20.04 33.56,20.04C32.44,19.98 31.34,19.92 29.66,19.92C27.82,19.92 25.64,19.86 23.82,20.04ZM45.82,12.38C47.68,12.38 49.48,13.72 49.48,15.96C49.48,18.44 47.22,20.04 43.88,20.04C42.92,20.04 41.8,19.92 40.32,19.92C39.06,19.92 38.1,19.94 37.18,20.04C37,20.06 36.9,19.36 37.06,19.32C38.22,19.02 39.12,18.84 39.12,17.36L39.12,8.48C39.12,7.2 38.3,6.86 37.44,6.64C37.28,6.6 37.38,5.94 37.54,5.96C38.36,6.06 39.32,6.08 39.96,6.08C41.56,6.08 42.74,5.96 43.62,5.96C46.2,5.96 48.32,7.04 48.34,9.24C48.36,10.86 47.22,11.98 45.82,12.26L45.82,12.38ZM42.94,7C41.88,7 41.52,7.36 41.52,8.48L41.52,12.04L43.58,12.04C45.02,12.04 45.86,11.32 45.86,9.78C45.86,7.88 44.58,7 42.94,7ZM43.82,19C45.58,19 46.9,18.48 46.9,16.4C46.9,14.2 45.44,13.04 43.58,13.04L41.52,13.04L41.52,17.36C41.52,18.46 42.08,19 43.82,19ZM60.47,20.04C60.27,20.06 60.19,19.36 60.35,19.32C61.51,19.02 62.41,18.84 62.41,17.36L62.41,8.48C62.41,7.2 61.59,6.86 60.73,6.64C60.57,6.6 60.67,5.94 60.83,5.96C61.65,6.06 62.49,6.08 63.33,6.08C64.89,6.08 66.29,5.96 67.31,5.96C72.15,5.96 74.77,8.84 74.77,12.7C74.77,16.54 72.15,20.04 67.29,20.04C66.33,20.04 65.09,19.92 63.61,19.92C62.37,19.92 61.39,19.94 60.47,20.04ZM67.49,18.98C70.75,18.98 72.37,17.22 72.37,13.84C72.37,10.02 70.29,7.02 66.69,7.02C65.27,7.02 64.81,7.46 64.81,8.48L64.81,17.36C64.81,18.44 65.55,18.98 67.49,18.98ZM76.47,20.04C76.27,20.06 76.19,19.36 76.35,19.32C77.51,19.02 78.41,18.84 78.41,17.36L78.41,8.48C78.41,7.2 77.59,6.86 76.73,6.64C76.57,6.6 76.67,5.94 76.83,5.96C78.29,6.12 80.81,6.08 82.03,6.08C83.85,6.08 85.17,6 86.81,5.96C87.29,5.96 87.29,6.28 87.19,6.74L86.71,8.64C86.65,8.92 86.15,8.92 86.07,8.64C85.77,7.66 85.17,7.1 82.67,7.1C81.27,7.1 80.81,7.46 80.81,8.5L80.81,11.76C80.81,12.28 81.07,12.38 81.47,12.38L81.91,12.38C83.53,12.38 84.93,12.22 85.75,11.48C85.95,11.3 86.39,11.34 86.21,11.74L85.07,14.26C84.91,14.62 84.61,14.58 84.39,14.28C83.93,13.64 82.91,13.38 81.75,13.38L81.47,13.38C81.07,13.38 80.81,13.48 80.81,14L80.81,17.36C80.81,18.5 81.29,18.92 82.95,18.92C85.97,18.92 87.17,17.54 87.65,16.78C87.79,16.56 88.33,16.66 88.33,17C88.33,18.02 87.47,20.04 86.21,20.04C85.09,19.98 83.99,19.92 82.31,19.92C80.47,19.92 78.29,19.86 76.47,20.04ZM104.63,6C104.85,6 104.93,6.64 104.67,6.68C103.87,6.8 103.35,7.12 102.63,8.8L99.25,16.66C98.55,18.28 98.23,19.2 98.23,20C98.23,20.12 96.85,20.44 96.79,20.3L91.93,8.82C91.21,7.1 90.67,6.8 89.89,6.68C89.63,6.64 89.69,6 89.95,6L95.21,6C95.47,6 95.51,6.64 95.27,6.68C94.53,6.8 93.79,7.12 94.49,8.8L97.87,16.92L101.25,8.8C101.97,7.08 101.17,6.82 100.25,6.68C99.99,6.64 100.05,6 100.31,6L104.63,6ZM106.13,20.04C105.93,20.06 105.85,19.36 106.01,19.32C107.17,19.02 108.07,18.84 108.07,17.36L108.07,8.48C108.07,7.2 107.25,6.86 106.39,6.64C106.23,6.6 106.33,5.94 106.49,5.96C107.95,6.12 110.47,6.08 111.69,6.08C113.51,6.08 114.83,6 116.47,5.96C116.95,5.96 116.95,6.28 116.85,6.74L116.37,8.64C116.31,8.92 115.81,8.92 115.73,8.64C115.43,7.66 114.83,7.1 112.33,7.1C110.93,7.1 110.47,7.46 110.47,8.5L110.47,11.76C110.47,12.28 110.73,12.38 111.13,12.38L111.57,12.38C113.19,12.38 114.59,12.22 115.41,11.48C115.61,11.3 116.05,11.34 115.87,11.74L114.73,14.26C114.57,14.62 114.27,14.58 114.05,14.28C113.59,13.64 112.57,13.38 111.41,13.38L111.13,13.38C110.73,13.38 110.47,13.48 110.47,14L110.47,17.36C110.47,18.5 110.95,18.92 112.61,18.92C115.63,18.92 116.83,17.54 117.31,16.78C117.45,16.56 117.99,16.66 117.99,17C117.99,18.02 117.13,20.04 115.87,20.04C114.75,19.98 113.65,19.92 111.97,19.92C110.13,19.92 107.95,19.86 106.13,20.04ZM119.889,20.04C119.689,20.06 119.609,19.36 119.769,19.32C120.929,19.02 121.829,18.84 121.829,17.36L121.829,8.48C121.829,7.08 121.009,6.8 120.149,6.68C119.989,6.66 120.109,6 120.249,6L125.769,6C125.909,6 126.009,6.66 125.869,6.68C125.029,6.78 124.229,7.08 124.229,8.48L124.229,17.36C124.229,18.5 124.709,18.92 126.369,18.92C129.389,18.92 130.589,17.54 131.069,16.78C131.209,16.56 131.749,16.66 131.749,17C131.749,18.02 130.889,20.04 129.629,20.04C128.509,19.98 127.409,19.92 125.729,19.92C123.889,19.92 121.709,19.86 119.889,20.04ZM140.27,20.32C136.11,20.32 133.05,17.24 133.05,13.08C133.05,9.04 135.93,5.68 140.31,5.68C144.49,5.68 147.53,8.74 147.53,12.9C147.53,16.96 144.67,20.32 140.27,20.32ZM141.05,18.96C142.81,18.96 145.15,17.8 145.15,14.02C145.15,9.98 142.41,7.04 139.53,7.04C137.77,7.04 135.45,8.2 135.45,11.96C135.45,16.04 138.19,18.96 141.05,18.96ZM161.33,10.24C161.33,13.8 157.99,15.3 153.57,14.64L153.57,17.52C153.57,18.92 154.53,19.16 155.81,19.32C155.95,19.34 155.85,20 155.69,20L149.63,20C149.47,20 149.35,19.34 149.51,19.32C150.53,19.18 151.17,18.78 151.17,17.52L151.17,8.6C151.17,7.28 150.47,6.9 149.51,6.64C149.35,6.6 149.45,5.94 149.63,5.96C150.41,6.06 151.29,6.08 151.93,6.08C153.41,6.08 154.65,5.96 155.67,5.96C158.77,5.96 161.33,7.1 161.33,10.24ZM155.17,7C153.91,7 153.57,7.44 153.57,8.6L153.57,13.66C156.97,14.14 158.75,13.32 158.75,10.7C158.75,8.32 157.23,7 155.17,7ZM163.03,20.04C162.83,20.06 162.75,19.36 162.91,19.32C164.07,19.02 164.97,18.84 164.97,17.36L164.97,8.48C164.97,7.2 164.15,6.86 163.29,6.64C163.13,6.6 163.23,5.94 163.39,5.96C164.85,6.12 167.37,6.08 168.59,6.08C170.41,6.08 171.73,6 173.37,5.96C173.85,5.96 173.85,6.28 173.75,6.74L173.27,8.64C173.21,8.92 172.71,8.92 172.63,8.64C172.33,7.66 171.73,7.1 169.23,7.1C167.83,7.1 167.37,7.46 167.37,8.5L167.37,11.76C167.37,12.28 167.63,12.38 168.03,12.38L168.47,12.38C170.09,12.38 171.49,12.22 172.31,11.48C172.51,11.3 172.95,11.34 172.77,11.74L171.63,14.26C171.47,14.62 171.17,14.58 170.95,14.28C170.49,13.64 169.47,13.38 168.31,13.38L168.03,13.38C167.63,13.38 167.37,13.48 167.37,14L167.37,17.36C167.37,18.5 167.85,18.92 169.51,18.92C172.53,18.92 173.73,17.54 174.21,16.78C174.35,16.56 174.89,16.66 174.89,17C174.89,18.02 174.03,20.04 172.77,20.04C171.65,19.98 170.55,19.92 168.87,19.92C167.03,19.92 164.85,19.86 163.03,20.04ZM191.19,19.5C191.35,19.5 191.31,20.04 191.19,20.08C189.93,20.5 188.19,20.44 186.99,18.9L183.91,14.94C183.05,13.82 182.03,13.66 180.63,13.64L180.63,17.52C180.63,18.92 181.59,19.16 182.87,19.32C183.01,19.34 182.91,20 182.75,20L176.69,20C176.53,20 176.41,19.34 176.57,19.32C177.59,19.18 178.23,18.78 178.23,17.52L178.23,8.6C178.23,7.28 177.53,6.9 176.57,6.64C176.41,6.6 176.51,5.94 176.69,5.96C177.47,6.06 178.35,6.08 178.99,6.08C180.47,6.08 181.85,5.96 182.81,5.96C185.83,5.96 187.85,7.2 187.85,9.66C187.85,11.98 185.97,13.12 184.29,13.22L184.29,13.32C185.09,13.32 185.67,13.66 186.55,14.76L189.53,18.5C190.15,19.28 190.75,19.5 191.19,19.5ZM181.21,12.72C184.19,12.72 185.33,12.2 185.33,10.2C185.33,8.06 183.97,7 182.19,7C181.01,7 180.63,7.48 180.63,8.6L180.63,12.72L181.21,12.72Z" style="fill:rgb(228,249,245);fill-rule:nonzero;"/>
        </g>
        <g id="SvgjsG6809" transform="matrix(1.37868,0,0,1.37868,-1.65441,-6.48896)">
            <path d="M4.92,40.96L7.28,40.96L7.28,44.6L1.2,44.6L1.2,11.96L7.28,11.96L7.28,15.6L5.12,15.6C4.84,15.6 4.84,15.6 4.84,15.96L4.84,23.52L4.8,25.72L7.28,25.72L7.28,29.36L4.84,29.36L4.84,40.88C4.84,40.92 4.88,40.96 4.92,40.96ZM21.485,15.6L18.485,15.6L18.485,25.72L18.525,32.4L18.525,44.6L14.885,44.6L14.885,15.6L11.885,15.6L11.885,11.96L21.485,11.96L21.485,15.6ZM35.73,32.76L35.73,44.6L32.09,44.6L32.09,29.36L29.73,29.36L29.73,44.6L26.09,44.6L26.09,11.96L29.69,11.96L29.69,25.72L32.09,25.72L32.09,11.96L35.69,11.96L35.69,32.76L35.73,32.76ZM52.975,44.36L52.975,44.48C52.975,44.52 52.935,44.56 52.895,44.6L49.415,44.6C49.415,44.56 49.375,44.56 49.335,44.52C49.335,44.44 49.335,44.4 49.295,44.32C49.255,43.76 49.215,43.2 49.135,42.64L48.815,39.2L48.735,38.32C48.735,38.24 48.695,38.2 48.575,38.2L48.335,38.2C47.095,38.16 45.895,38.16 44.695,38.2L44.415,38.2C44.335,38.2 44.295,38.24 44.255,38.32C44.255,38.56 44.215,38.76 44.215,38.96C44.135,39.64 44.055,40.32 44.015,41L43.855,42.72L43.695,44.2L43.695,44.28C43.655,44.6 43.655,44.6 43.375,44.6L40.575,44.6C40.495,44.6 40.415,44.6 40.335,44.56L40.415,44C40.415,43.88 40.415,43.76 40.455,43.64C40.495,43.12 40.535,42.56 40.615,42.04L40.775,40.44L40.935,38.8L41.095,37.24C41.135,36.96 41.175,36.68 41.175,36.44C41.295,35.56 41.375,34.72 41.455,33.84L41.695,31.56L41.855,29.96C41.935,29.44 41.975,28.92 42.015,28.36L42.215,26.76C42.215,26.48 42.255,26.24 42.295,25.96L42.535,23.36L42.775,21.08L42.935,19.52C43.015,18.96 43.055,18.44 43.095,17.92L43.295,16.28L43.375,15.44C43.415,14.84 43.495,14.24 43.575,13.64C43.615,13.08 43.655,12.56 43.735,12.04L43.735,11.96L49.615,11.96C49.615,12.24 49.655,12.48 49.695,12.72C49.735,13.24 49.775,13.72 49.855,14.24L50.015,16C50.095,16.56 50.135,17.08 50.175,17.6L50.375,19.24C50.375,19.52 50.415,19.76 50.455,20.04L50.695,22.64L50.935,24.88C50.975,25.44 51.055,26 51.135,26.52C51.175,27.08 51.215,27.6 51.295,28.16L51.615,31.36L51.775,33C51.815,33.24 51.855,33.52 51.855,33.76C51.975,34.64 52.055,35.48 52.135,36.36L52.375,38.64L52.535,40.24C52.615,40.76 52.655,41.28 52.695,41.84L52.895,43.44C52.895,43.76 52.935,44.08 52.975,44.36ZM44.615,34.56L48.335,34.56L47.735,28.08L47.615,27.2C47.615,26.84 47.575,26.48 47.535,26.12C47.495,25.8 47.455,25.44 47.455,25.12L47.255,23.36C47.215,22.8 47.175,22.2 47.095,21.6C47.095,21.32 47.055,21.04 47.015,20.76C46.975,20.44 46.935,20.08 46.935,19.76C46.855,19.16 46.815,18.6 46.775,18L46.575,16C46.575,15.88 46.535,15.76 46.495,15.64C46.495,15.6 46.495,15.6 46.455,15.6L46.455,15.64L46.295,16.96C46.255,17.52 46.215,18.12 46.135,18.68C46.095,19.28 46.055,19.84 45.975,20.44L45.815,22.2L45.735,23L45.575,24.76C45.495,25.36 45.455,25.92 45.415,26.52L45.335,27.32C45.255,27.88 45.215,28.48 45.175,29.04L44.975,30.8C44.935,31.4 44.895,31.96 44.815,32.56C44.815,32.72 44.775,32.88 44.775,33.08L44.615,34.56ZM68.7,25.72L68.7,44.6L65.02,44.6C63.78,39.16 62.54,33.72 61.34,28.28L61.22,27.68L61.22,44.6L57.58,44.6L57.58,11.96L61.26,11.96L64.34,25.72L65.06,28.92L65.06,11.96L68.66,11.96L68.7,25.72Z" style="fill:rgb(228,249,245);fill-rule:nonzero;"/>
        </g>
        <g id="SvgjsG6810" transform="matrix(0.81,0,0,0.81,104.9,-8.1)">
            <path d="M65.889,21.455C66.043,21.541 66.21,21.582 66.375,21.582C66.726,21.582 67.066,21.397 67.249,21.069C67.519,20.586 67.346,19.978 66.863,19.708C64.661,18.479 62.32,17.491 59.903,16.772C59.375,16.616 58.817,16.916 58.66,17.445C58.502,17.975 58.804,18.531 59.333,18.689C61.608,19.367 63.814,20.297 65.889,21.455Z" style="fill:rgb(228,249,245);fill-rule:nonzero;"/>
            <path d="M34.073,21.344C34.233,21.344 34.396,21.306 34.548,21.224C36.634,20.095 38.852,19.193 41.139,18.543C41.67,18.393 41.979,17.84 41.828,17.309C41.677,16.777 41.126,16.471 40.593,16.62C38.165,17.309 35.811,18.266 33.596,19.465C33.11,19.728 32.93,20.334 33.192,20.82C33.373,21.155 33.717,21.344 34.073,21.344Z" style="fill:rgb(228,249,245);fill-rule:nonzero;"/>
            <path d="M16.897,39.972C16.739,40.501 17.041,41.058 17.57,41.215C17.666,41.244 17.761,41.257 17.856,41.257C18.287,41.257 18.685,40.976 18.814,40.542C19.492,38.267 20.422,36.061 21.58,33.986C21.849,33.504 21.676,32.895 21.194,32.626C20.71,32.355 20.103,32.529 19.833,33.012C18.604,35.214 17.616,37.555 16.897,39.972Z" style="fill:rgb(228,249,245);fill-rule:nonzero;"/>
            <path d="M21.349,65.327C20.22,63.241 19.318,61.023 18.668,58.736C18.518,58.205 17.966,57.897 17.434,58.047C16.902,58.198 16.594,58.751 16.745,59.282C17.434,61.71 18.391,64.064 19.59,66.279C19.771,66.614 20.115,66.803 20.47,66.803C20.631,66.803 20.794,66.765 20.945,66.683C21.431,66.42 21.611,65.813 21.349,65.327Z" style="fill:rgb(228,249,245);fill-rule:nonzero;"/>
            <path d="M34.111,78.295C33.629,78.025 33.021,78.198 32.751,78.681C32.481,79.164 32.654,79.772 33.137,80.042C35.339,81.271 37.68,82.259 40.097,82.978C40.192,83.006 40.288,83.02 40.382,83.02C40.813,83.02 41.211,82.739 41.34,82.305C41.498,81.775 41.196,81.219 40.667,81.061C38.392,80.383 36.186,79.453 34.111,78.295Z" style="fill:rgb(228,249,245);fill-rule:nonzero;"/>
            <path d="M65.452,78.526C63.366,79.655 61.148,80.557 58.861,81.207C58.33,81.357 58.021,81.91 58.172,82.441C58.297,82.882 58.698,83.169 59.134,83.169C59.224,83.169 59.316,83.156 59.407,83.13C61.835,82.441 64.189,81.484 66.404,80.285C66.89,80.022 67.07,79.416 66.808,78.93C66.545,78.444 65.938,78.263 65.452,78.526Z" style="fill:rgb(228,249,245);fill-rule:nonzero;"/>
            <path d="M78.806,67.124C78.96,67.21 79.127,67.251 79.292,67.251C79.643,67.251 79.983,67.066 80.167,66.738C81.396,64.536 82.384,62.195 83.103,59.778C83.261,59.249 82.959,58.692 82.43,58.535C81.901,58.376 81.344,58.678 81.186,59.208C80.508,61.483 79.578,63.689 78.42,65.764C78.151,66.246 78.324,66.855 78.806,67.124Z" style="fill:rgb(228,249,245);fill-rule:nonzero;"/>
            <path d="M78.651,34.423C79.78,36.509 80.682,38.727 81.332,41.014C81.457,41.454 81.857,41.741 82.293,41.741C82.383,41.741 82.475,41.729 82.566,41.703C83.098,41.552 83.406,40.999 83.255,40.468C82.566,38.04 81.609,35.686 80.41,33.471C80.147,32.985 79.541,32.802 79.055,33.067C78.569,33.33 78.389,33.937 78.651,34.423Z" style="fill:rgb(228,249,245);fill-rule:nonzero;"/>
            <path d="M50,70C61.028,70 70,61.028 70,50C70,38.972 61.028,30 50,30C38.972,30 30,38.972 30,50C30,61.028 38.972,70 50,70ZM50,32C59.925,32 68,40.075 68,50C68,59.925 59.925,68 50,68C40.075,68 32,59.925 32,50C32,40.075 40.075,32 50,32Z" style="fill:rgb(228,249,245);fill-rule:nonzero;"/>
        </g>
        <g transform="matrix(1.37843,0,0,1.37843,184.043,-6.48189)">
            <path d="M21.325,19.12L21.325,37.44C21.325,38.12 21.285,38.84 21.245,39.52C21.205,39.92 21.165,40.32 21.085,40.68C21.085,40.72 21.085,40.76 21.045,40.8L21.045,40.96L21.005,41C20.245,44.84 16.245,44.6 16.245,44.6L10.125,44.6L10.125,28.28C10.125,22.84 10.125,17.4 10.165,11.96L16.245,11.96C16.245,11.96 20.245,11.72 21.005,15.56C21.045,15.6 21.045,15.6 21.045,15.64L21.045,15.76C21.085,15.8 21.085,15.84 21.085,15.88C21.165,16.28 21.205,16.64 21.245,17.04C21.285,17.72 21.325,18.44 21.325,19.12ZM17.685,37.6L17.685,18.96C17.685,18.44 17.645,17.92 17.565,17.36C17.525,17.16 17.485,16.96 17.405,16.76C17.365,16.6 17.285,16.48 17.245,16.36C16.965,15.92 16.605,15.68 16.125,15.6L13.765,15.6L13.765,23.52L13.725,25.72L13.765,25.72L13.765,40.88C13.765,40.92 13.805,40.96 13.845,40.96L16.125,40.96C16.605,40.88 16.965,40.64 17.245,40.2L17.405,39.84C17.485,39.64 17.525,39.4 17.565,39.2C17.645,38.68 17.685,38.12 17.685,37.6ZM39.068,44.36L39.068,44.48C39.068,44.52 39.028,44.56 38.988,44.6L35.508,44.6C35.508,44.56 35.468,44.56 35.428,44.52C35.428,44.44 35.428,44.4 35.388,44.32C35.348,43.76 35.308,43.2 35.228,42.64L34.908,39.2L34.828,38.32C34.828,38.24 34.788,38.2 34.668,38.2L34.428,38.2C33.188,38.16 31.988,38.16 30.788,38.2L30.508,38.2C30.428,38.2 30.388,38.24 30.348,38.32C30.348,38.56 30.308,38.76 30.308,38.96C30.228,39.64 30.148,40.32 30.108,41L29.948,42.72L29.788,44.2L29.788,44.28C29.748,44.6 29.748,44.6 29.468,44.6L26.668,44.6C26.588,44.6 26.508,44.6 26.428,44.56L26.508,44C26.508,43.88 26.508,43.76 26.548,43.64C26.588,43.12 26.628,42.56 26.708,42.04L26.868,40.44L27.028,38.8L27.188,37.24C27.228,36.96 27.268,36.68 27.268,36.44C27.388,35.56 27.468,34.72 27.548,33.84L27.788,31.56L27.948,29.96C28.028,29.44 28.068,28.92 28.108,28.36L28.308,26.76C28.308,26.48 28.348,26.24 28.388,25.96L28.628,23.36L28.868,21.08L29.028,19.52C29.108,18.96 29.148,18.44 29.188,17.92L29.388,16.28L29.468,15.44C29.508,14.84 29.588,14.24 29.668,13.64C29.708,13.08 29.748,12.56 29.828,12.04L29.828,11.96L35.708,11.96C35.708,12.24 35.748,12.48 35.788,12.72C35.828,13.24 35.868,13.72 35.948,14.24L36.108,16C36.188,16.56 36.228,17.08 36.268,17.6L36.468,19.24C36.468,19.52 36.508,19.76 36.548,20.04L36.788,22.64L37.028,24.88C37.068,25.44 37.148,26 37.228,26.52C37.268,27.08 37.308,27.6 37.388,28.16L37.708,31.36L37.868,33C37.908,33.24 37.948,33.52 37.948,33.76C38.068,34.64 38.148,35.48 38.228,36.36L38.468,38.64L38.628,40.24C38.708,40.76 38.748,41.28 38.788,41.84L38.988,43.44C38.988,43.76 39.028,44.08 39.068,44.36ZM30.708,34.56L34.428,34.56L33.828,28.08L33.708,27.2C33.708,26.84 33.668,26.48 33.628,26.12C33.588,25.8 33.548,25.44 33.548,25.12L33.348,23.36C33.308,22.8 33.268,22.2 33.188,21.6C33.188,21.32 33.148,21.04 33.108,20.76C33.068,20.44 33.028,20.08 33.028,19.76C32.948,19.16 32.908,18.6 32.868,18L32.668,16C32.668,15.88 32.628,15.76 32.588,15.64C32.588,15.6 32.588,15.6 32.548,15.6L32.548,15.64L32.388,16.96C32.348,17.52 32.308,18.12 32.228,18.68C32.188,19.28 32.148,19.84 32.068,20.44L31.908,22.2L31.828,23L31.668,24.76C31.588,25.36 31.548,25.92 31.508,26.52L31.428,27.32C31.348,27.88 31.308,28.48 31.268,29.04L31.068,30.8C31.028,31.4 30.988,31.96 30.908,32.56C30.908,32.72 30.868,32.88 30.868,33.08L30.708,34.56ZM52.423,11.96L55.583,11.96L54.623,18.2C54.583,18.64 54.503,19.08 54.423,19.52C54.343,20.04 54.263,20.52 54.223,21.04L53.863,23.24L53.743,24.2L52.703,30.84L50.623,44.6L47.423,44.6C46.623,39.16 45.783,33.72 44.943,28.28L42.463,11.96L45.623,11.96L47.703,25.72L48.743,32.4L48.863,33.32C48.943,33.64 48.983,34 49.023,34.32L49.943,28.32L52.423,11.96ZM64.46,25.72L64.5,32.4L64.5,44.6L60.9,44.6L60.9,11.96L64.46,11.96L64.46,25.72ZM79.865,35.56L79.865,35.88C79.905,36.28 79.945,36.68 79.945,37.12L79.945,37.48L79.905,37.48L79.905,37.6C79.905,38.12 79.905,38.64 79.825,39.16C79.665,40.76 78.785,44.6 74.505,44.6C69.945,44.6 69.265,39.96 69.185,38.64C69.145,38.28 69.145,37.92 69.145,37.56L69.145,34.4L72.745,34.4L72.745,37.64C72.745,38.08 72.745,38.52 72.825,38.96C72.865,39.24 72.945,39.52 73.025,39.8C73.065,39.92 73.145,40.04 73.185,40.2C73.465,40.72 73.905,41 74.465,41.04C74.665,41.08 74.865,41.04 75.065,41C75.425,40.92 75.705,40.68 75.945,40.36C76.065,40.2 76.145,40 76.225,39.8C76.345,39.48 76.385,39.16 76.425,38.84C76.465,38.44 76.505,38 76.505,37.6L76.505,36.16C76.345,34.4 75.745,32.92 74.265,30.84C72.585,28.48 71.505,26.56 70.745,25.04C69.025,21.96 69.145,19.28 69.145,19.28L69.145,18.12L69.225,17.4C69.305,16.48 69.985,11.96 74.665,11.96C78.825,11.96 79.665,15.92 79.865,17.52C79.905,18 79.905,18.52 79.905,19L79.905,22.4C79.905,22.64 79.905,22.64 79.705,22.64L76.585,22.64C76.545,22.64 76.505,22.6 76.505,22.56L76.505,19.16C76.505,18.72 76.505,18.28 76.425,17.84C76.385,17.48 76.345,17.16 76.225,16.8C76.145,16.6 76.065,16.4 75.905,16.2C75.665,15.84 75.345,15.6 74.945,15.52C74.745,15.48 74.505,15.48 74.345,15.52C73.865,15.6 73.505,15.84 73.265,16.28C73.105,16.56 72.985,16.88 72.905,17.24C72.825,17.64 72.785,18 72.745,18.44L72.745,19.36C72.825,21.4 73.425,23 75.105,25.32L75.225,25.48C75.905,26.4 79.185,31.04 79.785,34.92L79.865,35.56Z" style="fill:rgb(228,249,245);fill-rule:nonzero;"/>
        </g>
    </g>
    <g id="Layer1">
        <g>
            <g transform="matrix(1.0659,0,0,1.0659,-110.209,-4.15795)">
                <circle cx="1591.35" cy="148.538" r="48.984" style="fill:rgb(228,249,245);"/>
            </g>
            <g transform="matrix(1.0659,0,0,1.0659,-110.209,550.491)">
                <circle cx="1591.35" cy="148.538" r="48.984" style="fill:rgb(228,249,245);"/>
            </g>
        </g>
        <g transform="matrix(6.12323e-17,1,-1,6.12323e-17,2017.51,-1154.53)">
            <g transform="matrix(1.0659,0,0,1.0659,-110.209,-4.15795)">
                <circle cx="1591.35" cy="148.538" r="48.984" style="fill:rgb(228,249,245);"/>
            </g>
            <g transform="matrix(1.0659,0,0,1.0659,-110.209,550.491)">
                <circle cx="1591.35" cy="148.538" r="48.984" style="fill:rgb(228,249,245);"/>
            </g>
        </g>
        <g transform="matrix(-0.707107,0.707107,-0.707107,-0.707107,3012.62,-384.881)">
            <g transform="matrix(1.0659,0,0,1.0659,-110.209,-4.15795)">
                <circle cx="1591.35" cy="148.538" r="48.984" style="fill:rgb(228,249,245);"/>
            </g>
            <g transform="matrix(1.0659,0,0,1.0659,-110.209,550.491)">
                <circle cx="1591.35" cy="148.538" r="48.984" style="fill:rgb(228,249,245);"/>
            </g>
        </g>
        <g transform="matrix(0.707107,0.707107,-0.707107,0.707107,769.646,-995.104)">
            <g transform="matrix(1.0659,0,0,1.0659,-110.209,-4.15795)">
                <circle cx="1591.35" cy="148.538" r="48.984" style="fill:rgb(228,249,245);"/>
            </g>
            <g transform="matrix(1.0659,0,0,1.0659,-110.209,550.491)">
                <circle cx="1591.35" cy="148.538" r="48.984" style="fill:rgb(228,249,245);"/>
            </g>
        </g>
        <g transform="matrix(1.5849,0,0,1.5849,-969.434,-336.757)">
            <circle cx="1612.38" cy="485.24" r="105.154" style="fill:rgb(228,249,245);"/>
        </g>
    </g>
</svg>
